<svg width="400" height="400" viewBox="0 0 400 400" xmlns="http://www.w3.org/2000/svg">
  <g transform="translate(200, 200)">
    <path d="M0 -65 L56 -32.5 L56 32.5 L0 65 L-56 32.5 L-56 -32.5 Z" fill="#1a1a1a" opacity="0.15"/>
    <path d="M0 -50 L22 -38 L22 18 L0 6 Z" fill="#1a1a1a" opacity="0.9"/>
    <path d="M0 -50 L-22 -38 L-46 -24 L-46 -4 L-22 -18 L0 -10 Z" fill="#1a1a1a" opacity="0.9"/>
    <path d="M0 6 L22 18 L46 4 L46 -20 L22 -6 L0 -16 Z" fill="#1a1a1a" opacity="0.6"/>
    <path d="M0 6 L-22 18 L-22 46 L0 56 L0 28 Z" fill="#1a1a1a" opacity="0.6"/>
    <path d="M0 56 L22 46 L46 30 L46 12 L22 26 L0 38 Z" fill="#1a1a1a" opacity="0.3"/>
    <path d="M-46 -4 L-46 18 L-22 32 L-22 0 Z" fill="#1a1a1a" opacity="0.3"/>
  </g>
</svg>
