<svg width="400" height="400" viewBox="0 0 400 400" xmlns="http://www.w3.org/2000/svg">
  <g transform="translate(200, 200)">
    <path d="M0 -70 L61 -35 L61 35 L0 70 L-61 35 L-61 -35 Z" fill="none" stroke="#1a1a1a" stroke-width="3"/>
    <path d="M0 -55 L24 -41 L24 14 L0 0 Z" fill="#1a1a1a"/>
    <path d="M0 -55 L-24 -41 L-48 -27 L-48 -8 L-24 -22 L0 -14 Z" fill="#1a1a1a"/>
    <path d="M0 0 L24 14 L48 0 L48 -24 L24 -10 L0 -18 Z" fill="#1a1a1a"/>
    <path d="M0 0 L-24 14 L-24 48 L0 58 L0 22 Z" fill="#1a1a1a"/>
    <path d="M0 58 L24 48 L48 32 L48 10 L24 24 L0 38 Z" fill="#1a1a1a"/>
    <path d="M-48 -8 L-48 16 L-24 30 L-24 -6 Z" fill="#1a1a1a"/>
  </g>
</svg>
